<svg width="3804" height="134" viewBox="0 0 3804 134" fill="none" xmlns="http://www.w3.org/2000/svg">
<g clip-path="url(#clip0_58_279)">
<path d="M3804 0H0V38L147.5 97L314 38L477.5 97L618.5 26L765.5 97L911.5 31.5L1071 97L1223.5 26L1376.5 97L1526.5 26L1675.5 97L1826 36L1971.5 97L2119.5 36L2276 97L2420 22L2578.5 97L2726.5 30.5L2887 97L3032 30.5L3186.5 97L3340.5 37L3495.25 97L3630.5 37L3804 97V0Z" fill="#EDEDEB"/>
<path d="M3791.08 78.281C3765.13 78.281 3752.68 65.41 3735.59 47.686L3735.17 47.264C3714.7 26.164 3689.38 0 3640.22 0C3590.63 0 3565.31 26.375 3544.85 47.686C3527.75 65.41 3515.31 78.281 3489.35 78.281C3463.4 78.281 3450.95 65.41 3433.86 47.686L3433.23 47.053C3412.97 26.164 3387.86 0.211013 3339.12 0.211013C3289.54 0.211013 3264.22 26.586 3243.96 47.686L3243.75 47.897C3226.66 65.621 3214.21 78.492 3188.26 78.492C3162.3 78.492 3149.85 65.621 3132.76 47.897L3132.13 47.264C3111.87 26.375 3086.55 0.211013 3037.39 0.211013C2987.81 0.211013 2962.49 26.586 2942.23 47.686L2942.02 47.897C2924.93 65.621 2912.48 78.492 2886.53 78.492C2860.57 78.492 2848.12 65.621 2831.03 47.897L2830.61 47.475C2810.14 26.375 2784.82 0.211013 2735.66 0.211013H2723V55.071H2735.66C2761.61 55.071 2774.06 67.942 2791.15 85.666L2791.79 86.299C2812.04 107.188 2837.36 133.352 2886.53 133.352C2936.11 133.352 2961.43 106.977 2981.69 85.877L2981.9 85.666C2998.99 67.942 3011.44 55.071 3037.39 55.071C3063.34 55.071 3075.79 67.942 3092.88 85.666L3093.31 86.088C3113.77 107.188 3139.09 133.352 3188.26 133.352C3237.84 133.352 3263.16 106.977 3283.42 85.877L3283.63 85.666C3300.72 67.942 3313.17 55.071 3339.12 55.071C3365.28 55.071 3377.52 67.942 3394.4 85.666C3414.66 106.766 3439.98 133.141 3489.56 133.141C3539.15 133.141 3564.47 106.766 3584.72 85.666L3584.94 85.455C3602.03 67.731 3614.48 54.86 3640.43 54.86C3666.38 54.86 3678.83 67.731 3695.92 85.455L3696.34 85.877C3716.81 106.977 3742.13 133.141 3791.08 133.141H3803.74V78.281H3791.08Z" fill="#A3C7F1"/>
<path d="M2876.08 78.281C2850.13 78.281 2837.68 65.41 2820.59 47.686L2820.17 47.264C2799.7 26.164 2774.38 0 2725.22 0C2675.63 0 2650.31 26.375 2629.85 47.686C2612.75 65.41 2600.31 78.281 2574.35 78.281C2548.4 78.281 2535.95 65.41 2518.86 47.686L2518.23 47.053C2497.97 26.164 2472.86 0.211013 2424.12 0.211013C2374.54 0.211013 2349.22 26.586 2328.96 47.686L2328.75 47.897C2311.66 65.621 2299.21 78.492 2273.26 78.492C2247.3 78.492 2234.85 65.621 2217.76 47.897L2217.13 47.264C2196.87 26.375 2171.55 0.211013 2122.39 0.211013C2072.81 0.211013 2047.49 26.586 2027.23 47.686L2027.02 47.897C2009.93 65.621 1997.48 78.492 1971.53 78.492C1945.57 78.492 1933.12 65.621 1916.03 47.897L1915.61 47.475C1895.14 26.375 1869.82 0.211013 1820.66 0.211013H1808V55.071H1820.66C1846.61 55.071 1859.06 67.942 1876.15 85.666L1876.79 86.299C1897.04 107.188 1922.36 133.352 1971.53 133.352C2021.11 133.352 2046.43 106.977 2066.69 85.877L2066.9 85.666C2083.99 67.942 2096.44 55.071 2122.39 55.071C2148.34 55.071 2160.79 67.942 2177.88 85.666L2178.31 86.088C2198.77 107.188 2224.09 133.352 2273.26 133.352C2322.84 133.352 2348.16 106.977 2368.42 85.877L2368.63 85.666C2385.72 67.942 2398.17 55.071 2424.12 55.071C2450.28 55.071 2462.52 67.942 2479.4 85.666C2499.66 106.766 2524.98 133.141 2574.56 133.141C2624.15 133.141 2649.47 106.766 2669.72 85.666L2669.94 85.455C2687.03 67.731 2699.48 54.86 2725.43 54.86C2751.38 54.86 2763.83 67.731 2780.92 85.455L2781.34 85.877C2801.81 106.977 2827.13 133.141 2876.08 133.141H2888.74V78.281H2876.08Z" fill="#A3C7F1"/>
<path d="M1975.08 78.281C1949.13 78.281 1936.68 65.41 1919.59 47.686L1919.17 47.264C1898.7 26.164 1873.38 0 1824.22 0C1774.63 0 1749.31 26.375 1728.85 47.686C1711.75 65.41 1699.31 78.281 1673.35 78.281C1647.4 78.281 1634.95 65.41 1617.86 47.686L1617.23 47.053C1596.97 26.164 1571.86 0.211013 1523.12 0.211013C1473.54 0.211013 1448.22 26.586 1427.96 47.686L1427.75 47.897C1410.66 65.621 1398.21 78.492 1372.26 78.492C1346.3 78.492 1333.85 65.621 1316.76 47.897L1316.13 47.264C1295.87 26.375 1270.55 0.211013 1221.39 0.211013C1171.81 0.211013 1146.49 26.586 1126.23 47.686L1126.02 47.897C1108.93 65.621 1096.48 78.492 1070.53 78.492C1044.57 78.492 1032.12 65.621 1015.03 47.897L1014.61 47.475C994.143 26.375 968.823 0.211013 919.66 0.211013H907V55.071H919.66C945.613 55.071 958.062 67.942 975.153 85.666L975.786 86.299C996.042 107.188 1021.36 133.352 1070.53 133.352C1120.11 133.352 1145.43 106.977 1165.69 85.877L1165.9 85.666C1182.99 67.942 1195.44 55.071 1221.39 55.071C1247.34 55.071 1259.79 67.942 1276.88 85.666L1277.31 86.088C1297.77 107.188 1323.09 133.352 1372.26 133.352C1421.84 133.352 1447.16 106.977 1467.42 85.877L1467.63 85.666C1484.72 67.942 1497.17 55.071 1523.12 55.071C1549.28 55.071 1561.52 67.942 1578.4 85.666C1598.66 106.766 1623.98 133.141 1673.56 133.141C1723.15 133.141 1748.47 106.766 1768.72 85.666L1768.94 85.455C1786.03 67.731 1798.48 54.86 1824.43 54.86C1850.38 54.86 1862.83 67.731 1879.92 85.455L1880.34 85.877C1900.81 106.977 1926.13 133.141 1975.08 133.141H1987.74V78.281H1975.08Z" fill="#A3C7F1"/>
<path d="M1068.08 78.281C1042.13 78.281 1029.68 65.41 1012.59 47.686L1012.17 47.264C991.7 26.164 966.38 0 917.217 0C867.632 0 842.312 26.375 821.845 47.686C804.754 65.41 792.305 78.281 766.352 78.281C740.399 78.281 727.95 65.41 710.859 47.686L710.226 47.053C689.97 26.164 664.861 0.211013 616.12 0.211013C566.535 0.211013 541.215 26.586 520.959 47.686L520.748 47.897C503.657 65.621 491.208 78.492 465.255 78.492C439.302 78.492 426.853 65.621 409.762 47.897L409.129 47.264C388.873 26.375 363.553 0.211013 314.39 0.211013C264.805 0.211013 239.485 26.586 219.229 47.686L219.018 47.897C201.927 65.621 189.478 78.492 163.525 78.492C137.572 78.492 125.123 65.621 108.032 47.897L107.61 47.475C87.143 26.375 61.823 0.211013 12.66 0.211013H0V55.071H12.66C38.613 55.071 51.062 67.942 68.153 85.666L68.786 86.299C89.042 107.188 114.362 133.352 163.525 133.352C213.11 133.352 238.43 106.977 258.686 85.877L258.897 85.666C275.988 67.942 288.437 55.071 314.39 55.071C340.343 55.071 352.792 67.942 369.883 85.666L370.305 86.088C390.772 107.188 416.092 133.352 465.255 133.352C514.84 133.352 540.16 106.977 560.416 85.877L560.627 85.666C577.718 67.942 590.167 55.071 616.12 55.071C642.284 55.071 654.522 67.942 671.402 85.666C691.658 106.766 716.978 133.141 766.563 133.141C816.148 133.141 841.468 106.766 861.724 85.666L861.935 85.455C879.026 67.731 891.475 54.86 917.428 54.86C943.381 54.86 955.83 67.731 972.921 85.455L973.343 85.877C993.81 106.977 1019.13 133.141 1068.08 133.141H1080.74V78.281H1068.08Z" fill="#A3C7F1"/>
</g>
<defs>
<clipPath id="clip0_58_279">
<rect width="3804" height="134" fill="white"/>
</clipPath>
</defs>
</svg>
